# xmcd CD database file
# Generated: Tue Aug 21 21:28:13 2001 by KSCD
# 
# Track frame offsets:
#       150
#       12894
#       23647
#       35809
#       45992
#       58184
#       71827
#       83831
#       93206
#       103037
#       114958
#       126559
#       139120
#       150128
#       159074
#
# Disc length: 2231 seconds
#
# Revision: 2
# Processed by: cddbd v1.4b42PL1 Copyright (c) Steve Scherf et al.
# Submitted via: Kscd 1.2.7
#
DISCID=b408b50f
DTITLE=The New Pioneers - The Mystery of His Way
DYEAR=1900
DGENRE=
TTITLE0=The Mystery of His Way
TTITLE1=He Walks with the Wild and the Lonely
TTITLE2=How Shall I Know Him
TTITLE3=Trees
TTITLE4=Rest at the End of the Trail
TTITLE5=He's Gone Up the Trail
TTITLE6=The Place Where I Worship
TTITLE7=Song of the Trail
TTITLE8=The Woodsman's Prayer
TTITLE9=Lie Low, Little Doggies
TTITLE10=God's Green Earth
TTITLE11=All Through the Night
TTITLE12=All Wild Things
TTITLE13=Silver on the Sage
TTITLE14=The Lord's Prayer
EXTD=Performers:\nGene Butts, Alan Meyer, Ken Butts, Paul Denton, Ed Butts*
EXTD=\n\nRecording/Sound Engineer:\nPaul Denton\n\nRecorded in the studios 
EXTD=of Pioneers Productions, Denver, CO, 2000\n\nFor information, contact 
EXTD=www.newpioneersmusic.com or email: newpioneers@juno.com\n\n*Dedication
EXTD=:\n\nThe a cappella recording of "The Lord's Prayer" that is included 
EXTD=on\nthis album is particularly special to us, the New Pioneers, becaus
EXTD=e\nit features the wonderful voice of our late, departed brother, Ed,\
EXTD=nsinging the lead (melody) part. This recording was made in 1961 in\nH
EXTD=ouston, Texas, before his life was taken by cancer. This album\nis ded
EXTD=icated to his memory.\n
EXTT0=
EXTT1=
EXTT2=
EXTT3=
EXTT4=
EXTT5=
EXTT6=
EXTT7=
EXTT8=
EXTT9=
EXTT10=
EXTT11=
EXTT12=
EXTT13=
EXTT14=
PLAYORDER=
